<mxfile host="Electron" modified="2023-08-14T08:06:10.868Z" agent="Mozilla/5.0 (Macintosh; Intel Mac OS X 10_15_7) AppleWebKit/537.36 (KHTML, like Gecko) draw.io/21.6.8 Chrome/114.0.5735.289 Electron/25.5.0 Safari/537.36" etag="pmopFvOadoVqt_3qfCgq" version="21.6.8" type="device">
  <diagram name="Page-1" id="zZGrTEOczwzcUrt8ANj9">
    <mxGraphModel dx="1514" dy="1274" grid="0" gridSize="10" guides="1" tooltips="1" connect="1" arrows="1" fold="1" page="0" pageScale="1" pageWidth="850" pageHeight="1100" math="0" shadow="0">
      <root>
        <mxCell id="0" />
        <mxCell id="1" parent="0" />
        <mxCell id="gIVFHlrYA54n1BVrfLZ9-16" value="" style="rounded=0;whiteSpace=wrap;html=1;fontSize=16;dashed=1;dashPattern=12 12;" vertex="1" parent="1">
          <mxGeometry x="-332" y="-74" width="356" height="316" as="geometry" />
        </mxCell>
        <mxCell id="gIVFHlrYA54n1BVrfLZ9-2" value="Committed code" style="text;html=1;strokeColor=none;fillColor=none;align=center;verticalAlign=middle;whiteSpace=wrap;rounded=0;fontSize=16;" vertex="1" parent="1">
          <mxGeometry x="-277" y="390" width="60" height="30" as="geometry" />
        </mxCell>
        <mxCell id="gIVFHlrYA54n1BVrfLZ9-3" value="" style="endArrow=classic;html=1;rounded=0;fontSize=12;startSize=8;endSize=8;curved=1;" edge="1" parent="1">
          <mxGeometry width="50" height="50" relative="1" as="geometry">
            <mxPoint x="-251" y="370" as="sourcePoint" />
            <mxPoint x="-251" y="302" as="targetPoint" />
          </mxGeometry>
        </mxCell>
        <mxCell id="gIVFHlrYA54n1BVrfLZ9-5" value="" style="shape=flexArrow;endArrow=classic;html=1;rounded=0;fontSize=12;startSize=8;endSize=8;curved=1;" edge="1" parent="1" source="gIVFHlrYA54n1BVrfLZ9-52">
          <mxGeometry width="50" height="50" relative="1" as="geometry">
            <mxPoint x="-343" y="287" as="sourcePoint" />
            <mxPoint x="685" y="287" as="targetPoint" />
          </mxGeometry>
        </mxCell>
        <mxCell id="gIVFHlrYA54n1BVrfLZ9-7" value="" style="shape=flexArrow;endArrow=classic;html=1;rounded=0;fontSize=12;startSize=8;endSize=8;curved=1;" edge="1" parent="1" target="gIVFHlrYA54n1BVrfLZ9-6">
          <mxGeometry width="50" height="50" relative="1" as="geometry">
            <mxPoint x="-343" y="287" as="sourcePoint" />
            <mxPoint x="685" y="287" as="targetPoint" />
          </mxGeometry>
        </mxCell>
        <mxCell id="gIVFHlrYA54n1BVrfLZ9-15" style="edgeStyle=none;curved=1;rounded=0;orthogonalLoop=1;jettySize=auto;html=1;fontSize=12;startSize=8;endSize=8;dashed=1;" edge="1" parent="1" source="gIVFHlrYA54n1BVrfLZ9-6">
          <mxGeometry relative="1" as="geometry">
            <mxPoint x="-252.5" y="183" as="targetPoint" />
          </mxGeometry>
        </mxCell>
        <mxCell id="gIVFHlrYA54n1BVrfLZ9-6" value="1" style="ellipse;whiteSpace=wrap;html=1;aspect=fixed;fontSize=16;" vertex="1" parent="1">
          <mxGeometry x="-262" y="276" width="19" height="19" as="geometry" />
        </mxCell>
        <mxCell id="gIVFHlrYA54n1BVrfLZ9-11" style="edgeStyle=none;curved=1;rounded=0;orthogonalLoop=1;jettySize=auto;html=1;fontSize=12;startSize=8;endSize=8;" edge="1" parent="1">
          <mxGeometry relative="1" as="geometry">
            <mxPoint x="-252" y="60" as="targetPoint" />
            <mxPoint x="-252" y="145" as="sourcePoint" />
          </mxGeometry>
        </mxCell>
        <mxCell id="gIVFHlrYA54n1BVrfLZ9-8" value="precommit action" style="text;html=1;strokeColor=none;fillColor=none;align=center;verticalAlign=middle;whiteSpace=wrap;rounded=0;fontSize=16;" vertex="1" parent="1">
          <mxGeometry x="-282.5" y="151" width="60" height="30" as="geometry" />
        </mxCell>
        <mxCell id="gIVFHlrYA54n1BVrfLZ9-17" style="edgeStyle=none;curved=1;rounded=0;orthogonalLoop=1;jettySize=auto;html=1;entryX=0;entryY=0.5;entryDx=0;entryDy=0;fontSize=12;startSize=8;endSize=8;" edge="1" parent="1" source="gIVFHlrYA54n1BVrfLZ9-9" target="gIVFHlrYA54n1BVrfLZ9-12">
          <mxGeometry relative="1" as="geometry" />
        </mxCell>
        <mxCell id="gIVFHlrYA54n1BVrfLZ9-9" value="actions" style="whiteSpace=wrap;html=1;aspect=fixed;fontSize=16;" vertex="1" parent="1">
          <mxGeometry x="-292" y="-24" width="80" height="80" as="geometry" />
        </mxCell>
        <mxCell id="gIVFHlrYA54n1BVrfLZ9-19" style="edgeStyle=none;curved=1;rounded=0;orthogonalLoop=1;jettySize=auto;html=1;entryX=0.5;entryY=0;entryDx=0;entryDy=0;fontSize=12;startSize=8;endSize=8;" edge="1" parent="1" source="gIVFHlrYA54n1BVrfLZ9-12" target="gIVFHlrYA54n1BVrfLZ9-18">
          <mxGeometry relative="1" as="geometry" />
        </mxCell>
        <mxCell id="gIVFHlrYA54n1BVrfLZ9-12" value="Finished" style="rounded=1;whiteSpace=wrap;html=1;fontSize=16;" vertex="1" parent="1">
          <mxGeometry x="-131" y="-45" width="120" height="60" as="geometry" />
        </mxCell>
        <mxCell id="gIVFHlrYA54n1BVrfLZ9-20" style="edgeStyle=none;curved=1;rounded=0;orthogonalLoop=1;jettySize=auto;html=1;entryX=1;entryY=0;entryDx=0;entryDy=0;fontSize=12;startSize=8;endSize=8;" edge="1" parent="1" source="gIVFHlrYA54n1BVrfLZ9-18" target="gIVFHlrYA54n1BVrfLZ9-6">
          <mxGeometry relative="1" as="geometry" />
        </mxCell>
        <mxCell id="gIVFHlrYA54n1BVrfLZ9-21" value="PUSH IN" style="edgeLabel;html=1;align=center;verticalAlign=middle;resizable=0;points=[];fontSize=16;" vertex="1" connectable="0" parent="gIVFHlrYA54n1BVrfLZ9-20">
          <mxGeometry x="-0.3045" y="-2" relative="1" as="geometry">
            <mxPoint as="offset" />
          </mxGeometry>
        </mxCell>
        <mxCell id="gIVFHlrYA54n1BVrfLZ9-18" value="committed changes" style="text;html=1;strokeColor=none;fillColor=none;align=center;verticalAlign=middle;whiteSpace=wrap;rounded=0;fontSize=16;" vertex="1" parent="1">
          <mxGeometry x="-103" y="64" width="60" height="30" as="geometry" />
        </mxCell>
        <mxCell id="gIVFHlrYA54n1BVrfLZ9-22" value="pre-commit" style="text;html=1;strokeColor=none;fillColor=none;align=center;verticalAlign=middle;whiteSpace=wrap;rounded=0;fontSize=16;" vertex="1" parent="1">
          <mxGeometry x="-227.5" y="-124" width="147" height="30" as="geometry" />
        </mxCell>
        <mxCell id="gIVFHlrYA54n1BVrfLZ9-24" value="" style="shape=flexArrow;endArrow=classic;html=1;rounded=0;fontSize=12;startSize=8;endSize=8;curved=1;" edge="1" parent="1" source="gIVFHlrYA54n1BVrfLZ9-6" target="gIVFHlrYA54n1BVrfLZ9-23">
          <mxGeometry width="50" height="50" relative="1" as="geometry">
            <mxPoint x="-243" y="286" as="sourcePoint" />
            <mxPoint x="685" y="287" as="targetPoint" />
          </mxGeometry>
        </mxCell>
        <mxCell id="gIVFHlrYA54n1BVrfLZ9-33" style="edgeStyle=none;curved=1;rounded=0;orthogonalLoop=1;jettySize=auto;html=1;fontSize=12;startSize=8;endSize=8;" edge="1" parent="1" source="gIVFHlrYA54n1BVrfLZ9-23">
          <mxGeometry relative="1" as="geometry">
            <mxPoint x="-93.5" y="382" as="targetPoint" />
          </mxGeometry>
        </mxCell>
        <mxCell id="gIVFHlrYA54n1BVrfLZ9-23" value="2" style="ellipse;whiteSpace=wrap;html=1;aspect=fixed;fontSize=16;" vertex="1" parent="1">
          <mxGeometry x="-103" y="276" width="19" height="19" as="geometry" />
        </mxCell>
        <mxCell id="gIVFHlrYA54n1BVrfLZ9-25" value="" style="shape=flexArrow;endArrow=classic;html=1;rounded=0;fontSize=12;startSize=8;endSize=8;curved=1;" edge="1" parent="1" source="gIVFHlrYA54n1BVrfLZ9-30">
          <mxGeometry width="50" height="50" relative="1" as="geometry">
            <mxPoint x="-89" y="380" as="sourcePoint" />
            <mxPoint x="106" y="380" as="targetPoint" />
          </mxGeometry>
        </mxCell>
        <mxCell id="gIVFHlrYA54n1BVrfLZ9-27" value="" style="shape=flexArrow;endArrow=classic;html=1;rounded=0;fontSize=12;startSize=8;endSize=8;curved=1;" edge="1" parent="1" target="gIVFHlrYA54n1BVrfLZ9-26">
          <mxGeometry width="50" height="50" relative="1" as="geometry">
            <mxPoint x="-89" y="380" as="sourcePoint" />
            <mxPoint x="106" y="380" as="targetPoint" />
          </mxGeometry>
        </mxCell>
        <mxCell id="gIVFHlrYA54n1BVrfLZ9-26" value="1" style="ellipse;whiteSpace=wrap;html=1;aspect=fixed;fontSize=16;" vertex="1" parent="1">
          <mxGeometry x="-70" y="369" width="19" height="19" as="geometry" />
        </mxCell>
        <mxCell id="gIVFHlrYA54n1BVrfLZ9-29" value="" style="shape=flexArrow;endArrow=classic;html=1;rounded=0;fontSize=12;startSize=8;endSize=8;curved=1;" edge="1" parent="1" source="gIVFHlrYA54n1BVrfLZ9-26" target="gIVFHlrYA54n1BVrfLZ9-28">
          <mxGeometry width="50" height="50" relative="1" as="geometry">
            <mxPoint x="-51" y="379" as="sourcePoint" />
            <mxPoint x="106" y="380" as="targetPoint" />
          </mxGeometry>
        </mxCell>
        <mxCell id="gIVFHlrYA54n1BVrfLZ9-28" value="2" style="ellipse;whiteSpace=wrap;html=1;aspect=fixed;fontSize=16;" vertex="1" parent="1">
          <mxGeometry x="-11" y="369" width="19" height="19" as="geometry" />
        </mxCell>
        <mxCell id="gIVFHlrYA54n1BVrfLZ9-31" value="" style="shape=flexArrow;endArrow=classic;html=1;rounded=0;fontSize=12;startSize=8;endSize=8;curved=1;" edge="1" parent="1" source="gIVFHlrYA54n1BVrfLZ9-28" target="gIVFHlrYA54n1BVrfLZ9-30">
          <mxGeometry width="50" height="50" relative="1" as="geometry">
            <mxPoint x="8" y="379" as="sourcePoint" />
            <mxPoint x="106" y="380" as="targetPoint" />
          </mxGeometry>
        </mxCell>
        <mxCell id="gIVFHlrYA54n1BVrfLZ9-30" value="3" style="ellipse;whiteSpace=wrap;html=1;aspect=fixed;fontSize=16;" vertex="1" parent="1">
          <mxGeometry x="39" y="369" width="19" height="19" as="geometry" />
        </mxCell>
        <mxCell id="gIVFHlrYA54n1BVrfLZ9-35" style="edgeStyle=none;curved=1;rounded=0;orthogonalLoop=1;jettySize=auto;html=1;fontSize=12;startSize=8;endSize=8;endArrow=none;endFill=0;startArrow=classic;startFill=1;" edge="1" parent="1">
          <mxGeometry relative="1" as="geometry">
            <mxPoint x="107.5" y="383" as="targetPoint" />
            <mxPoint x="107.5" y="295" as="sourcePoint" />
          </mxGeometry>
        </mxCell>
        <mxCell id="gIVFHlrYA54n1BVrfLZ9-36" value="branch A" style="text;html=1;strokeColor=none;fillColor=none;align=center;verticalAlign=middle;whiteSpace=wrap;rounded=0;fontSize=16;" vertex="1" parent="1">
          <mxGeometry x="-66" y="407" width="147" height="30" as="geometry" />
        </mxCell>
        <mxCell id="gIVFHlrYA54n1BVrfLZ9-38" style="edgeStyle=none;curved=1;rounded=0;orthogonalLoop=1;jettySize=auto;html=1;fontSize=12;startSize=8;endSize=8;" edge="1" parent="1" source="gIVFHlrYA54n1BVrfLZ9-37">
          <mxGeometry relative="1" as="geometry">
            <mxPoint x="115" y="271" as="targetPoint" />
          </mxGeometry>
        </mxCell>
        <mxCell id="gIVFHlrYA54n1BVrfLZ9-37" value="merge" style="text;html=1;strokeColor=none;fillColor=none;align=center;verticalAlign=middle;whiteSpace=wrap;rounded=0;fontSize=16;" vertex="1" parent="1">
          <mxGeometry x="88" y="149" width="147" height="30" as="geometry" />
        </mxCell>
        <mxCell id="gIVFHlrYA54n1BVrfLZ9-39" value="" style="shape=flexArrow;endArrow=classic;html=1;rounded=0;fontSize=12;startSize=8;endSize=8;curved=1;" edge="1" source="gIVFHlrYA54n1BVrfLZ9-45" parent="1">
          <mxGeometry width="50" height="50" relative="1" as="geometry">
            <mxPoint x="248" y="202" as="sourcePoint" />
            <mxPoint x="443" y="202" as="targetPoint" />
          </mxGeometry>
        </mxCell>
        <mxCell id="gIVFHlrYA54n1BVrfLZ9-40" value="" style="shape=flexArrow;endArrow=classic;html=1;rounded=0;fontSize=12;startSize=8;endSize=8;curved=1;" edge="1" target="gIVFHlrYA54n1BVrfLZ9-41" parent="1">
          <mxGeometry width="50" height="50" relative="1" as="geometry">
            <mxPoint x="248" y="202" as="sourcePoint" />
            <mxPoint x="443" y="202" as="targetPoint" />
          </mxGeometry>
        </mxCell>
        <mxCell id="gIVFHlrYA54n1BVrfLZ9-41" value="1" style="ellipse;whiteSpace=wrap;html=1;aspect=fixed;fontSize=16;" vertex="1" parent="1">
          <mxGeometry x="267" y="191" width="19" height="19" as="geometry" />
        </mxCell>
        <mxCell id="gIVFHlrYA54n1BVrfLZ9-42" value="" style="shape=flexArrow;endArrow=classic;html=1;rounded=0;fontSize=12;startSize=8;endSize=8;curved=1;" edge="1" source="gIVFHlrYA54n1BVrfLZ9-41" target="gIVFHlrYA54n1BVrfLZ9-43" parent="1">
          <mxGeometry width="50" height="50" relative="1" as="geometry">
            <mxPoint x="286" y="201" as="sourcePoint" />
            <mxPoint x="443" y="202" as="targetPoint" />
          </mxGeometry>
        </mxCell>
        <mxCell id="gIVFHlrYA54n1BVrfLZ9-43" value="2" style="ellipse;whiteSpace=wrap;html=1;aspect=fixed;fontSize=16;" vertex="1" parent="1">
          <mxGeometry x="326" y="191" width="19" height="19" as="geometry" />
        </mxCell>
        <mxCell id="gIVFHlrYA54n1BVrfLZ9-44" value="" style="shape=flexArrow;endArrow=classic;html=1;rounded=0;fontSize=12;startSize=8;endSize=8;curved=1;" edge="1" source="gIVFHlrYA54n1BVrfLZ9-43" target="gIVFHlrYA54n1BVrfLZ9-45" parent="1">
          <mxGeometry width="50" height="50" relative="1" as="geometry">
            <mxPoint x="345" y="201" as="sourcePoint" />
            <mxPoint x="443" y="202" as="targetPoint" />
          </mxGeometry>
        </mxCell>
        <mxCell id="gIVFHlrYA54n1BVrfLZ9-45" value="3" style="ellipse;whiteSpace=wrap;html=1;aspect=fixed;fontSize=16;" vertex="1" parent="1">
          <mxGeometry x="376" y="191" width="19" height="19" as="geometry" />
        </mxCell>
        <mxCell id="gIVFHlrYA54n1BVrfLZ9-46" value="branch B" style="text;html=1;strokeColor=none;fillColor=none;align=center;verticalAlign=middle;whiteSpace=wrap;rounded=0;fontSize=16;" vertex="1" parent="1">
          <mxGeometry x="269" y="139" width="147" height="30" as="geometry" />
        </mxCell>
        <mxCell id="gIVFHlrYA54n1BVrfLZ9-48" value="" style="shape=flexArrow;endArrow=classic;html=1;rounded=0;fontSize=12;startSize=8;endSize=8;curved=1;" edge="1" parent="1" source="gIVFHlrYA54n1BVrfLZ9-50" target="gIVFHlrYA54n1BVrfLZ9-47">
          <mxGeometry width="50" height="50" relative="1" as="geometry">
            <mxPoint x="-84" y="286" as="sourcePoint" />
            <mxPoint x="685" y="287" as="targetPoint" />
          </mxGeometry>
        </mxCell>
        <mxCell id="gIVFHlrYA54n1BVrfLZ9-49" style="edgeStyle=none;curved=1;rounded=0;orthogonalLoop=1;jettySize=auto;html=1;fontSize=12;startSize=8;endSize=8;" edge="1" parent="1" source="gIVFHlrYA54n1BVrfLZ9-47">
          <mxGeometry relative="1" as="geometry">
            <mxPoint x="235.5" y="204" as="targetPoint" />
          </mxGeometry>
        </mxCell>
        <mxCell id="gIVFHlrYA54n1BVrfLZ9-47" value="4" style="ellipse;whiteSpace=wrap;html=1;aspect=fixed;fontSize=16;" vertex="1" parent="1">
          <mxGeometry x="226" y="276" width="19" height="19" as="geometry" />
        </mxCell>
        <mxCell id="gIVFHlrYA54n1BVrfLZ9-51" value="" style="shape=flexArrow;endArrow=classic;html=1;rounded=0;fontSize=12;startSize=8;endSize=8;curved=1;" edge="1" parent="1" source="gIVFHlrYA54n1BVrfLZ9-23" target="gIVFHlrYA54n1BVrfLZ9-50">
          <mxGeometry width="50" height="50" relative="1" as="geometry">
            <mxPoint x="-84" y="286" as="sourcePoint" />
            <mxPoint x="226" y="286" as="targetPoint" />
          </mxGeometry>
        </mxCell>
        <mxCell id="gIVFHlrYA54n1BVrfLZ9-50" value="3" style="ellipse;whiteSpace=wrap;html=1;aspect=fixed;fontSize=16;" vertex="1" parent="1">
          <mxGeometry x="98" y="276" width="19" height="19" as="geometry" />
        </mxCell>
        <mxCell id="gIVFHlrYA54n1BVrfLZ9-53" value="" style="shape=flexArrow;endArrow=classic;html=1;rounded=0;fontSize=12;startSize=8;endSize=8;curved=1;" edge="1" parent="1" source="gIVFHlrYA54n1BVrfLZ9-47" target="gIVFHlrYA54n1BVrfLZ9-52">
          <mxGeometry width="50" height="50" relative="1" as="geometry">
            <mxPoint x="245" y="286" as="sourcePoint" />
            <mxPoint x="685" y="287" as="targetPoint" />
          </mxGeometry>
        </mxCell>
        <mxCell id="gIVFHlrYA54n1BVrfLZ9-54" style="edgeStyle=none;curved=1;rounded=0;orthogonalLoop=1;jettySize=auto;html=1;fontSize=12;startSize=8;endSize=8;endArrow=none;endFill=0;startArrow=classic;startFill=1;" edge="1" parent="1" source="gIVFHlrYA54n1BVrfLZ9-52">
          <mxGeometry relative="1" as="geometry">
            <mxPoint x="441" y="207" as="targetPoint" />
          </mxGeometry>
        </mxCell>
        <mxCell id="gIVFHlrYA54n1BVrfLZ9-52" value="5" style="ellipse;whiteSpace=wrap;html=1;aspect=fixed;fontSize=16;" vertex="1" parent="1">
          <mxGeometry x="431" y="276" width="19" height="19" as="geometry" />
        </mxCell>
        <mxCell id="gIVFHlrYA54n1BVrfLZ9-55" value="commits history" style="text;html=1;strokeColor=none;fillColor=none;align=center;verticalAlign=middle;whiteSpace=wrap;rounded=0;fontSize=16;" vertex="1" parent="1">
          <mxGeometry x="395" y="344" width="147" height="30" as="geometry" />
        </mxCell>
      </root>
    </mxGraphModel>
  </diagram>
</mxfile>
